<svg xmlns="http://www.w3.org/2000/svg" width="242.862" height="236.674" viewBox="0 0 242.862 236.674"><defs><style>.a{fill:#d09080;}.a,.b,.c,.d,.e,.f,.g,.h,.i{fill-rule:evenodd;}.b{fill:#477b9e;}.c{fill:#e1f1ff;}.d{fill:#365e7d;}.e{fill:#cf4351;}.f{fill:#bd3341;}.g{fill:#ff6978;}.h{fill:#cbe2ff;}.i{fill:#294b64;}</style></defs><g transform="translate(0 -6.523)"><path class="a" d="M252.422,50.091h7.22v79.586h-7.22Z" transform="translate(-132.688 -22.902)"/><path class="b" d="M183.926,264.58l19.126,33.135L249.9,378.847H62.532l46.845-81.133q9.566-16.563,19.131-33.132Z" transform="translate(-32.871 -135.65)"/><path class="c" d="M201.626,215.076,224.712,231.4c3.227,2.057,6.306,2.07,9.251,0l23.073-16.323q-12.222-21.177-24.444-42.341c-1.842-3.173-4.76-3.066-6.535.013Q213.835,193.906,201.626,215.076Z" transform="translate(-105.987 -86.142)"/><path class="d" d="M405.7,436.161c2,3.469,0,6.925-3.993,6.925H316.062c-3.966,0-5.97-3.415-4.034-6.858l21.446-37.151,7.095-12.292,36.627,0q14.255,24.689,28.509,49.371Z" transform="translate(-163.629 -199.889)"/><path class="d" d="M54.062,417.712q10.025,17.364,20.048,34.73c1.977,3.456-.027,6.9-4.007,6.9H11.561c-4.007,0-6-3.456-4.007-6.925q10.02-17.359,20.041-34.707Z" transform="translate(-3.561 -216.144)"/><path class="e" d="M400.884,82.959H337.676a4.863,4.863,0,0,1-4.128-4.128V45.755h67.336c1.223.081,1.546.712.968,1.923L389.307,64.351l12.545,16.673A1.244,1.244,0,0,1,400.884,82.959Z" transform="translate(-175.333 -20.623)"/><path class="f" d="M333.548,72.915V45.754h43.443V64.659a9.7,9.7,0,0,1-8.255,8.256H333.548Z" transform="translate(-175.333 -20.622)"/><path class="g" d="M321.667,43.728H256.549a4.863,4.863,0,0,1-4.128-4.114V10.651a4.864,4.864,0,0,1,4.128-4.128h65.117a4.85,4.85,0,0,1,4.114,4.128V39.613a4.849,4.849,0,0,1-4.114,4.114Z" transform="translate(-132.688)"/><g transform="translate(0 53.959)"><path class="c" d="M373.035,353.8l14.9,10.528c2.393,1.56,4.679,1.613,6.831,0l14.9-10.528q-8.209-14.2-16.39-28.384c-1.09-1.882-2.81-1.815-3.859,0Q381.223,339.613,373.035,353.8Z" transform="translate(-196.09 -220.859)"/><path class="c" d="M50.683,394.484l10.81,7.651a3.86,3.86,0,0,0,4.827,0l10.824-7.651q-5.667-9.8-11.308-19.577c-1.089-1.882-2.81-1.815-3.859,0Q56.33,384.689,50.683,394.484Z" transform="translate(-26.642 -246.875)"/><path class="c" d="M73.978,127.625h.013a16.512,16.512,0,0,1,0,33.024H16.511a16.512,16.512,0,0,1,0-33.024A21.093,21.093,0,0,1,55.168,115.94,12.138,12.138,0,0,1,74.086,126,10.913,10.913,0,0,1,73.978,127.625Z" transform="translate(0 -106.528)"/></g><path class="h" d="M83,160a16.549,16.549,0,0,1-16.511,16.511H9.026a16.281,16.281,0,0,1-6.333-1.264,16.557,16.557,0,0,0,15.234,10.178h57.48a16.511,16.511,0,0,0,6.333-31.759A16.383,16.383,0,0,1,83,160Z" transform="translate(-1.416 -77.349)"/><path class="d" d="M316.386,297.72l16.485,28.545,2.138-3.711,3.791-6.562L328.245,297.72l-19.133-33.131-8.417,5.957Z" transform="translate(-158.063 -135.655)"/><path class="h" d="M256.528,192.916l16.229,28.116,8.417-5.957-24.095-41.749-.336-.592h-.013c-.915-1.573-2.084-2.339-3.254-2.339-1.2,0-2.38.807-3.281,2.353l-.336.578-2.313,4.021,2.313,4.034,3.617,6.239Z" transform="translate(-130.125 -86.14)"/><path class="i" d="M432.476,392.747q12.545,21.7,25.076,43.416c2,3.469,0,6.925-3.993,6.925h11.859c3.993,0,6-3.456,3.993-6.925q-14.259-24.687-28.5-49.373Z" transform="translate(-227.335 -199.891)"/><path class="h" d="M399.141,332.353q7.906,13.7,15.812,27.4l8.417-5.957q-8.189-14.2-16.377-28.384c-1.09-1.882-2.81-1.815-3.859,0Z" transform="translate(-209.813 -166.9)"/><path class="i" d="M92.8,430.759l12.518,21.688c1.977,3.456-.027,6.9-4.007,6.9h11.859c3.98,0,5.983-3.442,4.007-6.9L98.725,420.487l-1.6-2.77-8.43,5.957Z" transform="translate(-46.623 -216.148)"/><path class="h" d="M66.075,381.832l10.73,18.609,8.43-5.957L73.928,374.907c-1.089-1.882-2.81-1.815-3.859,0Z" transform="translate(-34.733 -192.916)"/></g></svg>