<svg xmlns="http://www.w3.org/2000/svg" width="291.403" height="291.403" viewBox="0 0 291.403 291.403"><defs><style>.a{fill:#54585e;}.b{fill:#7e848d;}.c{fill:#c1c8d1;}.d{fill:#71995f;}.e{fill:#96cc7f;}.f{fill:#e5e6e8;}.g{fill:#fff;}</style></defs><g transform="translate(-2 -2)"><path class="a" d="M8,139.134,80.851,42h87.421l72.851,97.134Z" transform="translate(23.14 154.268)"/><path class="b" d="M80.851,42,8,139.134H226.552L153.7,42Z" transform="translate(23.14 154.268)"/><path class="c" d="M4,26H23.427V200.842H4Z" transform="translate(7.713 92.561)"/><path class="c" d="M56,26H75.427V200.842H56Z" transform="translate(208.262 92.561)"/><path class="d" d="M10,4H223.7v97.134H10Z" transform="translate(30.854 7.713)"/><path class="e" d="M10,4H209.125v97.134H10Z" transform="translate(30.854 7.713)"/><path class="d" d="M54,2H92.854V118.561H54Z" transform="translate(200.549 0)"/><path class="e" d="M54,2H78.284V118.561H54Z" transform="translate(200.549 0)"/><path class="d" d="M2,2H40.854V118.561H2Z" transform="translate(0 0)"/><path class="e" d="M2,2H26.284V118.561H2Z" transform="translate(0 0)"/><g transform="translate(55.424 35.997)"><path class="f" d="M27.57,57.567H13V47.854H27.57a4.857,4.857,0,1,0,0-9.713A14.57,14.57,0,0,1,27.57,9H42.14v9.713H27.57a4.857,4.857,0,1,0,0,9.713,14.57,14.57,0,0,1,0,29.14Z" transform="translate(-13 -9)"/><path class="f" d="M21,9H50.14v9.713H21Z" transform="translate(17.854 -9)"/><path class="f" d="M23,10h9.713V53.71H23Z" transform="translate(25.567 -5.143)"/><path class="f" d="M45,9H74.14v9.713H45Z" transform="translate(110.415 -9)"/><path class="f" d="M47,10h9.713V53.71H47Z" transform="translate(118.128 -5.143)"/><path class="f" d="M58.14,57.567H48.427v-34a4.857,4.857,0,1,0-9.713,0v34H29v-34a14.57,14.57,0,0,1,29.14,0Z" transform="translate(48.707 -9)"/><path class="f" d="M30,15H49.427v9.713H30Z" transform="translate(52.564 14.14)"/><path class="f" d="M66.14,57.567H56.427V47.854A4.862,4.862,0,0,0,51.57,43H46.713v14.57H37V13.857A4.855,4.855,0,0,1,41.857,9h7.285A16.991,16.991,0,0,1,61.726,37.417,14.529,14.529,0,0,1,66.14,47.854ZM46.713,33.284h2.428a7.285,7.285,0,1,0,0-14.57H46.713Z" transform="translate(79.561 -9)"/></g><path class="g" d="M31,59h9.713V73.57H31Z" transform="translate(111.845 219.833)"/><path class="g" d="M31,55h9.713v9.713H31Z" transform="translate(111.845 204.406)"/><path class="g" d="M31,51h9.713v9.713H31Z" transform="translate(111.845 188.979)"/><path class="g" d="M31,47h9.713v9.713H31Z" transform="translate(111.845 173.552)"/><path class="g" d="M31,42h9.713V56.57H31Z" transform="translate(111.845 154.268)"/></g></svg>